<svg xmlns="http://www.w3.org/2000/svg" viewBox="0 0 200 400">
    <!-- VDD Label -->
    <text x="90" y="30" font-size="18" font-family="serif" font-style="italic">V</text>
    <text x="100" y="35" font-size="12" font-family="serif" font-style="italic">DD</text>
    
    <!-- VDD Vertical Line -->
    <line x1="100" y1="40" x2="100" y2="100" stroke="black" stroke-width="2"/>
    
    <!-- PMOS T1 -->
    <line x1="73" y1="99" x2="73" y2="161" stroke="black" stroke-width="4"/>
    <line x1="80" y1="99" x2="80" y2="161" stroke="black" stroke-width="4"/>
    <line x1="79" y1="100" x2="101" y2="100" stroke="black" stroke-width="2"/>
    <line x1="79" y1="160" x2="101" y2="160" stroke="black" stroke-width="2"/>
    <!-- PMOS Gate circle and connection -->
    <line x1="50" y1="130" x2="74" y2="130" stroke="black" stroke-width="2"/>
    <text x="110" y="137" font-size="18" font-family="serif" font-style="italic">T</text>
    <text x="119" y="143" font-size="13" font-family="serif">1</text>
    
    <!-- Input Vx -->
    <text x="0" y="200" font-size="18" font-family="serif" font-style="italic">V</text>
    <text x="8" y="205" font-size="18" font-family="serif" font-style="italic">x</text>
    <line x1="18" y1="200" x2="50" y2="200" stroke="black" stroke-width="2"/>
    <line x1="50" y1="129" x2="50" y2="271" stroke="black" stroke-width="2"/>
    
    <!-- Center node and output -->
    <line x1="100" y1="160" x2="100" y2="240" stroke="black" stroke-width="2"/>
    <line x1="100" y1="200" x2="160" y2="200" stroke="black" stroke-width="2"/>
    <text x="165" y="200" font-size="18" font-family="serif" font-style="italic">V</text>
    <text x="177" y="205" font-size="18" font-family="serif" font-style="italic">f</text>
    
    <!-- NMOS T2 -->
    <line x1="73" y1="239" x2="73" y2="301" stroke="black" stroke-width="4"/>
    <line x1="80" y1="239" x2="80" y2="301" stroke="black" stroke-width="4"/>
    <line x1="79" y1="240" x2="101" y2="240" stroke="black" stroke-width="2"/>
    <line x1="79" y1="300" x2="101" y2="300" stroke="black" stroke-width="2"/>
    <text x="110" y="279" font-size="18" font-family="serif" font-style="italic">T</text>
    <text x="119" y="285" font-size="13" font-family="serif">2</text>
    <line x1="50" y1="270" x2="74" y2="270" stroke="black" stroke-width="2"/>
    
    <!-- Ground connection and symbol -->
    <line x1="100" y1="300" x2="100" y2="320" stroke="black" stroke-width="2"/>
    <line x1="80" y1="320" x2="120" y2="320" stroke="black" stroke-width="2"/>
    <line x1="85" y1="328" x2="115" y2="328" stroke="black" stroke-width="2"/>
    <line x1="90" y1="336" x2="110" y2="336" stroke="black" stroke-width="2"/>
</svg>
